<svg id="eWQZa0CqvuU1" xmlns="http://www.w3.org/2000/svg" xmlns:xlink="http://www.w3.org/1999/xlink" viewBox="0 0 300 300" shape-rendering="geometricPrecision" text-rendering="geometricPrecision"><g transform="translate(.000001 0.000001)"><ellipse rx="24.418605" ry="76.976745" transform="translate(150.232558 170.930233)" fill="#299676" stroke="#299676"/></g><ellipse rx="39.534884" ry="12.558139" transform="matrix(.905887-.146429 0.166667 1.031085 201.162792 193.037511)" fill="#299676" stroke="#299676"/><ellipse rx="38.139535" ry="7.790698" transform="matrix(.826421 0.50059-.777188 1.283055 101.162791 160.679282)" fill="#299676" stroke="#299676"/><path d="M146.27907,96.27907c-18.792465,20.45451-18.921198,125.38477-3.72093,146.97674" transform="translate(1.049809 0.907739)" fill="#008000" stroke="#008000" stroke-width="0.6"/><path d="M150.46512,99.512391c13.3913,53.56518,20.90967,96.585559,0,148.859709" transform="translate(6.046512-2.325582)" fill="#008000" stroke="#008000" stroke-width="0.6"/><path d="M170.93023,194.88372c17.67552,3.5351,43.05412-2.58901,55.81395-15.34884" fill="#008000" stroke="#008000" stroke-width="0.6"/><path d="M124.41861,173.95349c-19.13224-7.65289-35.88394-18.67464-50.69767-33.48837" fill="#008000" stroke="#008000" stroke-width="0.6"/><path d="M172.32558,203.72093c26.360231,1.04995,44.771066,3.841448,61.86047-17.67442" fill="#008000" stroke="#008000" stroke-width="0.6"/><polygon points="2.608002,-8.873997 2.608002,-3.589607 8.439673,-2.742216 5.216005,1.371108 5.216005,7.179214 0,4.436999 -5.216005,7.179214 -5.216005,1.121899 -8.439673,-2.742216 -2.608002,-3.589607 2.608002,-8.873997" transform="translate(69.64348 140.46512)" fill="#ffc0cb" stroke="#ffc0cb"/><polygon points="2.608002,-8.873997 2.608002,-3.589607 8.439673,-2.742216 5.216005,1.371108 5.216005,7.179214 0,4.436999 -5.216005,7.179214 -5.216005,1.121899 -8.439673,-2.742216 -2.608002,-3.589607 2.608002,-8.873997" transform="translate(231.503946 179.534887)" fill="#ffc0cb" stroke="#ffc0cb"/><rect width="132.558139" height="28.372093" rx="14" ry="14" transform="matrix(.564911 0 0 1.065574 112.790783 233.953491)" fill="#a52a2a" stroke-width="0"/></svg>
