<svg id="eBcqQ9zZ3P21" xmlns="http://www.w3.org/2000/svg" xmlns:xlink="http://www.w3.org/1999/xlink" viewBox="0 0 300 300" shape-rendering="geometricPrecision" text-rendering="geometricPrecision"><defs><filter id="eBcqQ9zZ3P22-filter" x="-150%" width="400%" y="-150%" height="400%"><feColorMatrix id="eBcqQ9zZ3P22-filter-saturate-0" type="saturate" values="1.07" result="result"/></filter></defs><g filter="url(#eBcqQ9zZ3P22-filter)"><rect width="62.51103" height="42.803289" rx="13" ry="13" transform="translate(164.776103 118.42823)" fill="#66cdaa" stroke-width="0"/><line x1="-20.748182" y1="10.788846" x2="-48.887723" y2="-11.602592" transform="translate(128.887723 196.718873)" fill="#3f5787" stroke="#66cdaa" stroke-width="3"/><rect width="42.726633" height="30.244696" rx="15.12" ry="15.12" transform="matrix(.696697 0 0 0.855665 135.604661 209.669611)" fill="#66cdaa" stroke-width="0"/><line x1="7.201118" y1="-9.096698" x2="-7.201118" y2="9.096698" transform="translate(183.526249 170.328217)" fill="#3f5787" stroke="#66cdaa" stroke-width="3"/><line x1="-7.201118" y1="-4.560708" x2="11.798882" y2="2.439292" transform="translate(183.531118 183.985623)" fill="#3f5787" stroke="#66cdaa" stroke-width="3" stroke-linecap="round"/><line x1="14.07887" y1="1.75" x2="-14.078869" y2="-1.75" transform="translate(181.251131 184.674915)" fill="#3f5787" stroke="#66cdaa" stroke-width="3" stroke-linecap="round"/><line x1="0" y1="0" x2="0" y2="0" transform="translate(195.330001 186.424915)" fill="none" stroke="#3f5787" stroke-width="3"/><line x1="0" y1="-2.020858" x2="0" y2="2.020858" transform="translate(195.330001 188.445773)" fill="#3f5787" stroke="#66cdaa" stroke-width="3"/><line x1="6.721044" y1="-12.497348" x2="-12.924024" y2="16.781225" transform="translate(169.604088 197.172263)" fill="#3f5787" stroke="#66cdaa" stroke-width="3"/><g transform="translate(0 0.000001)"><line x1="-7.667107" y1="-12.466981" x2="7.201118" y2="12.001863" transform="translate(162.402969 243.274829)" fill="#3f5787" stroke="#66cdaa" stroke-width="3"/><line x1="-5.320304" y1="-12.001864" x2="10.056166" y2="5.753358" transform="translate(144.679696 242.809713)" fill="#3f5787" stroke="#66cdaa" stroke-width="3"/><polygon points="0,-13.499646 3.967446,-5.460721 7.246068,0.398583 6.419463,2.08581 5.569644,9.393683 -0.861305,12.746563 -6.450788,8.081068 -6.419463,2.08581 -4.8472,-5.002047 -4.847201,-5.002047 0,-13.499646" transform="matrix(.462306-.88672 0.88672 0.462306 163.356372 253.291057)" fill="#66cdaa" stroke-width="0"/></g></g><ellipse rx="3.023256" ry="3.255814" transform="translate(220 130.513416)" stroke-width="0"/><g transform="translate(.000001 0)"><ellipse rx="5.823522" ry="7.821914" transform="matrix(.994066-.108781 0.108781 0.994066 176.88641 132.007983)" stroke-width="0"/><ellipse rx="1.476186" ry="2.222484" transform="matrix(-1.398511 1.561162-.713082-.638789 176.526249 130.044967)" fill="#d2dbed" stroke-width="0"/></g><path d="M170.93023,159.53488c-9.001753,5.201042-26.125596,11.012086-6.97674,15.81395c3.319424.832396,7.341019.546249,10.987947,0c11.718541-1.755241,30.367369-24.802951-4.69487-17.209297" transform="translate(.000001 0.000001)" fill="#66cdaa" stroke="#66cdaa" stroke-width="0.6"/><path d="M154.65116,170.69767c-95.198241,58.35337-73.599092,68.987791-4.651159,28.616533c18.622497,1.437902,48.674405-27.275948,13.206316-30.44938" fill="#66cdaa" stroke="#66cdaa" stroke-width="0.6"/><path d="M95.116283,223.801651c-2.199989,2.203181,56.469121-8.914175,61.563782-14.13204c7.543945-7.72638,14.585694-16.530739,11.493594-18.739379-4.21108-3.00791-77.209858,27.254068-73.057378,32.790698" fill="#66cdaa" stroke="#66cdaa" stroke-width="0.6"/><path d="M135.11628,218.13954c15.677082,16.963062-19.729882,10.548352-26.97674,7.90698-.784429-.285913-7.278127-1.972016-7.441867-2.790706-.43839-2.19196,8.809661-.616669,9.168061-.646539c8.01853-.66821,18.841496-3.839085,26.645896-5.399965" transform="translate(.000001 0)" fill="#66cdaa" stroke="#66cdaa" stroke-width="0.6"/><path d="M176.51163,180c-5.4693,4.10197,2.30776,7.92225,5.58139,5.11628c4.57309-3.91979-5.68092-5.46847-7.44186-5.11628" transform="translate(.000001 0)" fill="#66cdaa" stroke="#66cdaa" stroke-width="0.6"/><path d="M97.44186,221.39535c10.330869,22.271123,103.098695-30.628493,42.7907-10.69768-5.840037,1.930037-11.55294,3.1658-17.67442,4.18605-8.35688,1.39281-16.04217,4.41773-24.18605,6.04651" fill="#66cdaa" stroke="#66cdaa" stroke-width="0.6"/><path d="M144.41861,234.41861c.86853,4.34266,12.00692,21.48146,18.13953,15.34884c9.49927-9.49927-7.24437-16.96973-17.67442-14.88372" transform="translate(.000001 0)" fill="#66cdaa" stroke="#66cdaa" stroke-width="0.6"/><line x1="19.61493" y1="-33.838914" x2="29.312589" y2="3.054518" transform="translate(61.437136 219.554757)" fill="#66cdaa" stroke="#66cdaa" stroke-width="3"/><path d="M108.139541,206.619079c-3.76756-2.82567-18.500357-25.914766-21.530131-20.62799-10.424216,18.189641,16.826797,63.067883,21.530131,20.62799" transform="translate(-.708515 4.475542)" fill="#66cdaa" stroke="#66cdaa" stroke-width="0.6"/><line x1="-4.848829" y1="-21.117308" x2="4.84883" y2="21.117308" transform="translate(85.900895 205.792223)" fill="#66cdaa" stroke="#66cdaa" stroke-width="3"/><line x1="-22.427468" y1="-1.258926" x2="26.182199" y2="1.258926" transform="translate(113.177193 228.168457)" fill="#66cdaa" stroke="#66cdaa" stroke-width="3"/><path d="M83.02326,190.23256c-11.989086,9.722459,19.589032.715563,0-1.786787" fill="#66cdaa" stroke="#66cdaa" stroke-width="0.6"/><path d="M111.39535,229.76744c-4.37129-.87426-19.46942,2.24428-22.32558-2.32558-4.8212-7.71392-7.69546-26.51107-9.30232-35.34884-.0936-.51479-.26147-4.71904.93023-5.11628c4.35022-1.45007,6.07203,23.72093,12.09302,23.72093c3.52608,0-1.36776-9.99724,5.5814-9.30232c6.86707.68671,13.48837,22.26167,13.48837,27.90698" fill="#66cdaa" stroke="#66cdaa" stroke-width="0.6"/></svg>
